<?xml version="1.0" encoding="UTF-8"?>
<svg id="Layer_2" data-name="Layer 2" version="1.1" viewBox="0 0 4252 4252" xmlns="http://www.w3.org/2000/svg">
 <defs id="defs1">
  <style id="style1">.cls-1,.cls-4{fill:#3c4a83;}.cls-2{fill:#ffe108;}.cls-3{fill:#f5b326;}.cls-4{isolation:isolate;font-size:197.75px;font-family:CenturyGothic, Century Gothic;}.cls-5{fill:none;stroke:#3c4a83;stroke-miterlimit:25.01;stroke-width:5px;}</style>
 </defs>
 <rect id="rect1" width="4247" height="4252" style="fill:#fff;stroke-width:.9913"/>
 <path id="path1996" class="cls-1" d="m783.41 1317.1h159.23v469.66h147.45v125.78h-306.2v-595.44z"/>
 <path id="path1997" class="cls-1" d="m1296 1695.8h72.55l-36.75-239.78zm89 108.34h-105.55l-16 108.35h-146.5l114-595.44h221.4l114 595.44h-164.9z"/>
 <path id="path1998" class="cls-1" d="m1577.2 1734.9h154c-0.94 55.59 13.19 69.72 42.39 69.72 27.33 0 38.16-13.19 38.16-46.63 0-45.7-25.91-55.12-79.15-79.14-99.86-44.28-148.85-91.39-148.85-198.33 0-108.82 69.24-172.41 189.84-172.41 116.36 0 184.66 52.29 185.61 176.65h-148.82c0-47.58-16-57.47-37.68-57.47-22.62 0-33.92 12.72-33.92 41 0 35.81 16.49 48 69.25 71.61 86.68 37.21 161.58 72.54 161.58 200.68 0 117.3-68.31 182.31-195 182.31-122.48 0-196.44-50.41-197.38-188"/>
 <path id="path2000" class="cls-1" d="M1121.17,2414.22V2228.61c0-54.17-17.9-75.37-51.82-75.37-32.5,0-51.35,21.2-51.35,75.37v185.61c0,55.12,16.49,75.37,51.35,75.37,34.39,0,51.82-20.73,51.82-75.37m-257.21,0V2229.56c0-129.55,88.57-194.09,204.92-194.09,120.13,0,204.92,58.42,204.92,192.67v182.31c0,130.49-79.14,197.85-204.92,197.85S864,2542.35,864,2414.22"/>
 <path id="path2002" class="cls-1" d="m1709.1 2043.5v384.4c0 125.78-72.08 180.9-192.67 180.9-122 0-190.32-58.42-190.32-181.84v-383.46h148.39v380.16c0 46.64 8.48 65 42.87 65 33.44 0 42.86-19.31 42.86-65v-380.16z"/>
 <path id="path2004" class="cls-1" d="m1748.6 2433.1h143.68c-0.94 51.82 12.25 65 39.57 65 25.44 0 35.8-12.25 35.8-43.34 0-42.87-24-51.35-74-74-93.28-41-139-85.26-139-184.66 0-101.75 64.53-160.64 177.12-160.64 108.82 0 172.42 49 172.89 164.41h-139c0-44.28-14.6-53.7-34.86-53.7-20.73 0-32 11.77-32 38.15 0 33.45 15.55 45.23 64.53 66.9 80.56 34.86 150.75 67.36 150.75 187 0 109.3-63.6 170.06-181.84 170.06-113.52 0-182.77-47.1-183.71-175.24"/>
 <path id="path2006" class="cls-1" d="m2154.2 2043.5h295.84v114.94h-147.45v98.46h116.36v106.93h-116.36v119.66h155.92v114.94h-304.31z"/>
 <path id="path2008" class="cls-1" d="m2277.7 1317.1v226.59h-94.22v-226.59h-159.23v595.44h159.23v-241.66h94.22v241.19h158.33v-595z"/>
 <path id="path2012" class="cls-1" d="M659.51,2035.47v218.11H569.07V2035.47H416V2608.3h153.1V2376.06h90.44V2608.3H811.68V2035.47Z"/>
 <path id="path2014" class="cls-1" d="M416,1317.08H730.65V1440.5H575.2v134.73H703.33v118.24H575.2v219H416Z"/>
 <path id="path2042" class="cls-2" d="m2580.1 1354.3v767.86l610-224.7v-348.6zm610.51 618.53-492.28 181.36 492.28 190.82zm-610.51 211v418.79h610v-182.27z"/>
 <path id="path2044" class="cls-3" d="m3836 1734.9-554.94 204.45v440.46l554.94 214.81zm-554.94 720.75v147h379.69z"/>
 <text id="text1" class="cls-4" transform="translate(1576.8 2908)">R</text>
 <text id="text2" class="cls-4" transform="translate(1696.8 2908)">e</text>
 <text id="text3" class="cls-4" transform="translate(1825.4 2908)">a</text>
 <text id="text4" class="cls-4" transform="translate(1960.4 2908)">l</text>
 <text id="text5" class="cls-4" transform="translate(2e3 2908)"/>
 <text id="text6" class="cls-4" transform="translate(2054.8 2908)">E</text>
 <text id="text7" class="cls-4" transform="translate(2160.8 2908)">s</text>
 <text id="text8" class="cls-4" transform="translate(2237.5 2908)">t</text>
 <text id="text9" class="cls-4" transform="translate(2304.6 2908)">a</text>
 <text id="text10" class="cls-4" transform="translate(2439.6 2908)">t</text>
 <text id="text11" class="cls-4" transform="translate(2506.6 2908)">e</text>
 <path id="path2080" class="cls-5" d="m3826.6 2853.3h-1084"/>
 <path id="path2082" class="cls-5" d="M1461.76,2853.26H416"/>
</svg>
