<?xml version="1.0" encoding="UTF-8" standalone="no"?>
<svg
   id="Layer_1"
   data-name="Layer 1"
   viewBox="0 0 45.35 45.35"
   version="1.1"
   sodipodi:docname="logo_dv_bimi.svg"
   inkscape:version="1.4.2 (f4327f4, 2025-05-13)"
   xmlns:inkscape="http://www.inkscape.org/namespaces/inkscape"
   xmlns:sodipodi="http://sodipodi.sourceforge.net/DTD/sodipodi-0.dtd"
   xmlns="http://www.w3.org/2000/svg"
   xmlns:svg="http://www.w3.org/2000/svg">
  <sodipodi:namedview
     id="namedview5"
     pagecolor="#ffffff"
     bordercolor="#000000"
     borderopacity="0.25"
     inkscape:showpageshadow="2"
     inkscape:pageopacity="0.0"
     inkscape:pagecheckerboard="0"
     inkscape:deskcolor="#d1d1d1"
     inkscape:zoom="18.853363"
     inkscape:cx="22.648479"
     inkscape:cy="22.674999"
     inkscape:window-width="1842"
     inkscape:window-height="1057"
     inkscape:window-x="70"
     inkscape:window-y="-8"
     inkscape:window-maximized="1"
     inkscape:current-layer="Layer_1" />
  <defs
     id="defs1">
    <style
       id="style1">.cls-1{fill:#af1f2c;}.cls-2{fill:#a3a3a2;opacity:0.81;}.cls-3,.cls-4{fill:#c2c1c1;}.cls-3,.cls-5{opacity:0.71;}.cls-5{fill:#e9e8e8;}</style>
  </defs>
  <polygon
     class="cls-1"
     points="20.8 8.07 2.63 19.08 9.05 23.05 43.96 16.75 37.2 13.37 13.43 18.23 25.83 10.03 20.8 8.07"
     id="polygon1" />
  <polygon
     class="cls-2"
     points="25.83 10.03 25.83 15.7 13.43 18.23 25.83 10.03"
     id="polygon2" />
  <path
     class="cls-3"
     d="M9.05,23.05v10.4L25.83,30V27l3.4-.63v2.8l14.74-3V16.75Z"
     id="path2" />
  <polygon
     class="cls-4"
     points="0.4 29.65 8.75 35.78 43.96 27.97 8.6 38.7 0.4 29.65"
     id="polygon3" />
  <polygon
     class="cls-5"
     points="2.63 19.08 9.05 23.05 9.05 33.45 2.63 28.64 2.63 19.08"
     id="polygon4" />
  <polygon
     class="cls-2"
     points="29.23 26.33 25.83 26.96 25.83 27.25 29.23 29.13 29.23 26.33"
     id="polygon5" />
</svg>
